# xmcd CD database file
#
# Track frame offsets:
#	182
#	62157
#	94837
#	133825
#	144507
#
# Disc length: 2432 seconds
#
# Revision: 0
# Processed by: cddbd v1.5.1PL2 Copyright (c) Steve Scherf et al.
# Submitted via: CDex 1.51
#
DISCID=47097e05
DTITLE=Duo Due - Focus It
DYEAR=1987
DGENRE=Jazz
TTITLE0=Focus It
TTITLE1=Green Noodles
TTITLE2=Kristallisation
TTITLE3=Flugs
TTITLE4=Regentanz
EXTD=YEAR: 1987
EXTT0=
EXTT1=
EXTT2=
EXTT3=
EXTT4=
PLAYORDER=
